<svg width="47" height="47" viewBox="0 0 47 47" fill="none" xmlns="http://www.w3.org/2000/svg">
<path d="M7.83327 19.5833L7.14002 20.2766L6.44873 19.5833L7.14002 18.8901L7.83327 19.5833ZM40.1458 35.25C40.1458 35.5097 40.0426 35.7587 39.859 35.9423C39.6754 36.126 39.4263 36.2291 39.1666 36.2291C38.9069 36.2291 38.6579 36.126 38.4742 35.9423C38.2906 35.7587 38.1874 35.5097 38.1874 35.25H40.1458ZM16.9317 30.0682L7.14002 20.2766L8.52652 18.8901L18.3182 28.6817L16.9317 30.0682ZM7.14002 18.8901L16.9317 9.09839L18.3182 10.4849L8.52652 20.2766L7.14002 18.8901ZM7.83327 18.6041H27.4166V20.5625H7.83327V18.6041ZM40.1458 31.3333V35.25H38.1874V31.3333H40.1458ZM27.4166 18.6041C30.7926 18.6041 34.0303 19.9452 36.4175 22.3324C38.8047 24.7196 40.1458 27.9573 40.1458 31.3333H38.1874C38.1874 28.4767 37.0527 25.7371 35.0327 23.7172C33.0128 21.6973 30.2732 20.5625 27.4166 20.5625V18.6041Z" fill="black"/>
</svg>
