<svg width="14" height="14" viewBox="0 0 14 14" fill="none" xmlns="http://www.w3.org/2000/svg">
<g clip-path="url(#clip0_120_2646)">
<path d="M5.62169 1.53027C5.13232 1.53002 4.65492 1.68155 4.25528 1.96398C3.85564 2.24641 3.55344 2.64583 3.39032 3.10721H0.890869V4.68415H3.39032C3.55322 5.14583 3.85531 5.54561 4.25495 5.82839C4.6546 6.11117 5.13212 6.26302 5.62169 6.26302C6.11126 6.26302 6.58878 6.11117 6.98842 5.82839C7.38806 5.54561 7.69016 5.14583 7.85306 4.68415H13.5064V3.10721H7.85306C7.68993 2.64583 7.38773 2.24641 6.98809 1.96398C6.58845 1.68155 6.11105 1.53002 5.62169 1.53027ZM4.83322 3.89568C4.83322 3.68657 4.91629 3.48602 5.06415 3.33815C5.21202 3.19028 5.41257 3.10721 5.62169 3.10721C5.8308 3.10721 6.03135 3.19028 6.17922 3.33815C6.32709 3.48602 6.41016 3.68657 6.41016 3.89568C6.41016 4.1048 6.32709 4.30535 6.17922 4.45321C6.03135 4.60108 5.8308 4.68415 5.62169 4.68415C5.41257 4.68415 5.21202 4.60108 5.06415 4.45321C4.91629 4.30535 4.83322 4.1048 4.83322 3.89568ZM8.77556 7.83803C8.2862 7.83777 7.8088 7.9893 7.40916 8.27173C7.00952 8.55416 6.70732 8.95359 6.5442 9.41497H0.890869V10.9919H6.5442C6.7071 11.4536 7.00919 11.8534 7.40883 12.1361C7.80848 12.4189 8.28599 12.5708 8.77556 12.5708C9.26514 12.5708 9.74265 12.4189 10.1423 12.1361C10.5419 11.8534 10.844 11.4536 11.0069 10.9919H13.5064V9.41497H11.0069C10.8438 8.95359 10.5416 8.55416 10.142 8.27173C9.74233 7.9893 9.26493 7.83777 8.77556 7.83803ZM7.98709 10.2034C7.98709 9.99432 8.07017 9.79377 8.21803 9.64591C8.3659 9.49804 8.56645 9.41497 8.77556 9.41497C8.98468 9.41497 9.18523 9.49804 9.3331 9.64591C9.48096 9.79377 9.56403 9.99432 9.56403 10.2034C9.56403 10.4126 9.48096 10.6131 9.3331 10.761C9.18523 10.9088 8.98468 10.9919 8.77556 10.9919C8.56645 10.9919 8.3659 10.9088 8.21803 10.761C8.07017 10.6131 7.98709 10.4126 7.98709 10.2034Z" fill="#0D5BDA"/>
</g>
<defs>
<clipPath id="clip0_120_2646">
<rect width="12.6155" height="12.6155" fill="white" transform="translate(0.8909 0.741699)"/>
</clipPath>
</defs>
</svg>
