<svg width="15" height="8" viewBox="0 0 15 8" fill="none" xmlns="http://www.w3.org/2000/svg">
<path d="M0.737843 0.292787C0.937092 0.105316 1.20729 0 1.48903 0C1.77077 0 2.04097 0.105316 2.24022 0.292787L7.49959 5.24279L12.759 0.292787C12.9594 0.110629 13.2277 0.00983372 13.5063 0.0121121C13.7849 0.0143906 14.0514 0.11956 14.2484 0.304968C14.4454 0.490376 14.5571 0.741188 14.5596 1.00339C14.562 1.26558 14.4549 1.51818 14.2613 1.70679L8.25078 7.36379C8.05153 7.55126 7.78133 7.65657 7.49959 7.65657C7.21786 7.65657 6.94765 7.55126 6.74841 7.36379L0.737843 1.70679C0.538655 1.51926 0.426758 1.26495 0.426758 0.999786C0.426758 0.734622 0.538655 0.480314 0.737843 0.292787Z" fill="black"/>
</svg>
