<svg width="586" height="334" viewBox="0 0 586 334" fill="none" xmlns="http://www.w3.org/2000/svg">
<ellipse cx="292.699" cy="186.753" rx="292.699" ry="147.247" fill="url(#paint0_radial_66_51)"/>
<path d="M235.797 197.359C232.203 197.359 229.115 196.067 226.531 193.484C224.061 190.788 222.825 187.475 222.825 183.544C222.825 179.501 224.061 176.244 226.531 173.773C229.115 171.19 232.203 169.898 235.797 169.898C239.504 169.898 242.592 171.19 245.063 173.773C247.646 176.244 248.938 179.501 248.938 183.544C248.938 187.475 247.646 190.788 245.063 193.484C242.592 196.067 239.504 197.359 235.797 197.359ZM285.976 197.359C282.382 197.359 279.293 196.067 276.71 193.484C274.239 190.788 273.004 187.475 273.004 183.544C273.004 179.501 274.239 176.244 276.71 173.773C279.293 171.19 282.382 169.898 285.976 169.898C289.682 169.898 292.771 171.19 295.242 173.773C297.825 176.244 299.117 179.501 299.117 183.544C299.117 187.475 297.825 190.788 295.242 193.484C292.771 196.067 289.682 197.359 285.976 197.359ZM336.155 197.359C332.561 197.359 329.472 196.067 326.889 193.484C324.418 190.788 323.183 187.475 323.183 183.544C323.183 179.501 324.418 176.244 326.889 173.773C329.472 171.19 332.561 169.898 336.155 169.898C339.861 169.898 342.95 171.19 345.421 173.773C348.004 176.244 349.295 179.501 349.295 183.544C349.295 187.475 348.004 190.788 345.421 193.484C342.95 196.067 339.861 197.359 336.155 197.359Z" fill="white"/>
<defs>
<radialGradient id="paint0_radial_66_51" cx="0" cy="0" r="1" gradientUnits="userSpaceOnUse" gradientTransform="translate(292.699 186.753) rotate(90) scale(147.247 292.699)">
<stop stop-color="#BBCDEB"/>
<stop offset="0.605797" stop-color="#ECF0F5"/>
<stop offset="1" stop-color="white"/>
</radialGradient>
</defs>
</svg>
