<svg width="13" height="14" viewBox="0 0 13 14" fill="none" xmlns="http://www.w3.org/2000/svg">
<g clip-path="url(#clip0_79_524)">
<path d="M4.8881 1.41858C4.39853 1.41832 3.92092 1.56992 3.52112 1.85247C3.12131 2.13502 2.81897 2.53461 2.65578 2.99619H0.155273V4.5738H2.65578C2.81875 5.03567 3.12097 5.43562 3.52078 5.71852C3.9206 6.00142 4.39832 6.15334 4.8881 6.15334C5.37788 6.15334 5.8556 6.00142 6.25541 5.71852C6.65523 5.43562 6.95745 5.03567 7.12041 4.5738H12.7761V2.99619H7.12041C6.95722 2.53461 6.65489 2.13502 6.25508 1.85247C5.85527 1.56992 5.37767 1.41832 4.8881 1.41858ZM4.09929 3.78499C4.09929 3.57579 4.1824 3.37515 4.33033 3.22722C4.47826 3.07929 4.67889 2.99619 4.8881 2.99619C5.0973 2.99619 5.29794 3.07929 5.44587 3.22722C5.5938 3.37515 5.6769 3.57579 5.6769 3.78499C5.6769 3.9942 5.5938 4.19483 5.44587 4.34276C5.29794 4.49069 5.0973 4.5738 4.8881 4.5738C4.67889 4.5738 4.47826 4.49069 4.33033 4.34276C4.1824 4.19483 4.09929 3.9942 4.09929 3.78499ZM8.04331 7.72901C7.55374 7.72875 7.07614 7.88035 6.67633 8.1629C6.27652 8.44545 5.97419 8.84505 5.811 9.30662H0.155273V10.8842H5.811C5.97397 11.3461 6.27619 11.746 6.676 12.0289C7.07581 12.3118 7.55354 12.4638 8.04331 12.4638C8.53309 12.4638 9.01081 12.3118 9.41063 12.0289C9.81044 11.746 10.1127 11.3461 10.2756 10.8842H12.7761V9.30662H10.2756C10.1124 8.84505 9.81011 8.44545 9.4103 8.1629C9.01049 7.88035 8.53289 7.72875 8.04331 7.72901ZM7.25451 10.0954C7.25451 9.88622 7.33762 9.68559 7.48555 9.53765C7.63348 9.38973 7.83411 9.30662 8.04331 9.30662C8.25252 9.30662 8.45315 9.38973 8.60108 9.53765C8.74901 9.68559 8.83212 9.88622 8.83212 10.0954C8.83212 10.3046 8.74901 10.5053 8.60108 10.6532C8.45315 10.8011 8.25252 10.8842 8.04331 10.8842C7.83411 10.8842 7.63348 10.8011 7.48555 10.6532C7.33762 10.5053 7.25451 10.3046 7.25451 10.0954Z" fill="black"/>
</g>
<defs>
<clipPath id="clip0_79_524">
<rect width="12.6209" height="12.6209" fill="white" transform="translate(0.155273 0.629761)"/>
</clipPath>
</defs>
</svg>
