<svg width="378" height="378" viewBox="0 0 378 378" fill="none" xmlns="http://www.w3.org/2000/svg">
<rect width="378" height="378" rx="50" fill="#0D5BDA"/>
<path fill-rule="evenodd" clip-rule="evenodd" d="M301.219 94.5519C304.706 93.8931 308.308 94.211 311.625 95.4707C314.943 96.7303 317.848 98.8826 320.019 101.69C322.19 104.497 323.543 107.85 323.928 111.377C324.313 114.905 323.715 118.471 322.2 121.68L334.118 133.187C335.022 134.058 335.735 135.108 336.213 136.269C336.69 137.43 336.921 138.678 336.892 139.933C336.862 141.188 336.572 142.424 336.041 143.561C335.509 144.699 334.747 145.713 333.803 146.541C332.859 147.369 331.753 147.992 330.556 148.37C329.359 148.749 328.096 148.874 326.848 148.74C325.6 148.605 324.393 148.213 323.304 147.588C322.215 146.963 321.268 146.118 320.522 145.108L310.674 131.797C307.294 132.882 303.679 133.011 300.231 132.17C296.782 131.329 293.633 129.55 291.132 127.031C288.631 124.512 286.875 121.35 286.059 117.895C285.242 114.441 285.398 110.827 286.507 107.455C286.663 106.981 286.944 106.559 287.32 106.231C287.697 105.903 288.154 105.683 288.645 105.593C289.136 105.504 289.642 105.548 290.109 105.722C290.577 105.895 290.989 106.191 291.303 106.579L299.063 116.199L305.516 114.294L308.253 108.136L299.722 99.2011C299.376 98.8395 299.134 98.3911 299.022 97.9033C298.91 97.4156 298.932 96.9067 299.085 96.4303C299.239 95.954 299.518 95.528 299.894 95.1973C300.269 94.8667 300.727 94.6437 301.219 94.5519Z" fill="white"/>
<path d="M115.2 201.48H106.16V231.96H93.2V165.08H106.16V190.44H115.2V201.48ZM85.76 231.16H48.32V165.16H85.76V231.16ZM61.28 220.12H72.8V176.2H61.28V220.12ZM160.671 177.24V177.56L160.591 178.2V178.52C159.711 191.64 158.991 205.96 156.671 218.84C154.911 228.68 147.551 231.8 138.351 231.8C130.031 231.8 119.871 229.72 119.871 219.4V219L119.951 218.28V217.96C120.991 205.08 121.791 191.96 123.711 179.16C125.311 168.2 132.671 164.68 142.911 164.68C150.911 164.68 160.671 167.64 160.671 177.24ZM181.311 231.96H168.351V165.08H181.311V231.96ZM138.271 220.92C142.271 220.92 143.631 219 144.271 215.16C145.951 204.6 146.911 193.72 147.791 183.08C147.791 179.4 147.391 175.64 142.591 175.64C138.111 175.64 136.671 179.4 136.111 183.24C134.511 193.8 133.551 204.6 132.831 215.24V215.88C132.831 219.72 134.831 220.92 138.271 220.92ZM192.063 188.12C192.063 184.68 192.623 181.16 193.103 177.8C194.623 167.88 205.103 164.76 213.823 164.76C223.023 164.76 231.663 168.28 231.663 178.76C231.663 182.04 231.023 185.4 230.463 188.6C228.623 198.44 218.463 200.36 209.903 200.36C202.223 200.36 192.063 197.56 192.063 188.12ZM224.383 217.32H240.303V165.08H253.263V231.96H240.303V228.68H224.383V217.32ZM212.943 175.72C206.703 175.72 205.183 179.16 205.183 184.84C205.183 188.52 207.743 189.48 211.023 189.48C217.343 189.48 219.023 186.44 219.023 180.52C219.023 177.16 215.823 175.72 212.943 175.72ZM219.023 231.96H204.383V214.52H189.983V202.92H236.783V214.52H219.023V231.96ZM324.734 231.96H311.774V202.12H297.134C295.454 212.04 293.694 222.04 291.934 231.96H278.654C280.414 222.12 282.174 212.28 283.774 202.36H262.094V191.32H285.534C285.774 190.04 285.934 188.84 286.094 187.56L287.294 179.96C287.454 178.68 287.694 177.48 287.854 176.2H263.294V165.16H303.054C301.774 173.4 300.494 181.72 299.134 189.96H311.774V165.08H324.734V231.96Z" fill="#F5F5FF"/>
</svg>
