<svg width="74" height="38" viewBox="0 0 74 38" fill="none" xmlns="http://www.w3.org/2000/svg">
<path d="M10.2454 30.133C10.8429 30.626 11.4661 31.0766 12.104 31.5164C12.7433 31.0824 13.3635 30.6209 13.9626 30.133C14.9615 29.3129 15.9015 28.4236 16.7757 27.4718C18.7911 25.2681 20.9781 22.0734 20.9781 18.4873C20.9781 17.3219 20.7485 16.168 20.3026 15.0914C19.8566 14.0147 19.203 13.0364 18.3789 12.2124C17.5549 11.3884 16.5766 10.7347 15.5 10.2888C14.4233 9.84279 13.2694 9.61325 12.104 9.61325C10.9387 9.61325 9.78472 9.84279 8.70808 10.2888C7.63143 10.7347 6.65316 11.3884 5.82913 12.2124C5.0051 13.0364 4.35144 14.0147 3.90548 15.0914C3.45951 16.168 3.22998 17.3219 3.22998 18.4873C3.22998 22.0734 5.41694 25.2671 7.43233 27.4718C8.30655 28.4239 9.24655 29.3126 10.2454 30.133ZM12.104 21.6918C11.2541 21.6918 10.4391 21.3542 9.83809 20.7532C9.23713 20.1523 8.89951 19.3372 8.89951 18.4873C8.89951 17.6374 9.23713 16.8223 9.83809 16.2214C10.4391 15.6204 11.2541 15.2828 12.104 15.2828C12.9539 15.2828 13.769 15.6204 14.37 16.2214C14.9709 16.8223 15.3085 17.6374 15.3085 18.4873C15.3085 19.3372 14.9709 20.1523 14.37 20.7532C13.769 21.3542 12.9539 21.6918 12.104 21.6918Z" fill="black"/>
<path d="M35.0111 10.9497C36.1554 10.9497 37.1651 11.1516 38.0401 11.5555C38.9152 11.9425 39.5967 12.4894 40.0847 13.1962C40.5896 13.8861 40.842 14.7023 40.842 15.6446C40.842 16.5533 40.5896 17.3695 40.0847 18.0931C39.5967 18.7999 38.9152 19.3552 38.0401 19.759C37.1651 20.1461 36.1554 20.3396 35.0111 20.3396C33.9005 20.3396 32.9077 20.1461 32.0326 19.759C31.1576 19.3552 30.4676 18.7999 29.9628 18.0931C29.458 17.3695 29.2055 16.5533 29.2055 15.6446C29.2055 14.7023 29.458 13.8861 29.9628 13.1962C30.4676 12.4894 31.1576 11.9425 32.0326 11.5555C32.9077 11.1516 33.9005 10.9497 35.0111 10.9497ZM35.0111 12.6661C34.2875 12.6661 33.6397 12.7923 33.0675 13.0447C32.4954 13.2972 32.041 13.6505 31.7045 14.1049C31.3847 14.5424 31.2249 15.0557 31.2249 15.6446C31.2249 16.2168 31.3847 16.73 31.7045 17.1844C32.041 17.6219 32.4954 17.9669 33.0675 18.2193C33.6397 18.4717 34.2875 18.5979 35.0111 18.5979C35.7684 18.5979 36.4331 18.4717 37.0052 18.2193C37.5774 17.9669 38.0233 17.6219 38.343 17.1844C38.6796 16.73 38.8479 16.2168 38.8479 15.6446C38.8479 15.0557 38.6796 14.5424 38.343 14.1049C38.0233 13.6505 37.5774 13.2972 37.0052 13.0447C36.4331 12.7923 35.7684 12.6661 35.0111 12.6661ZM34.1024 22.889H36.1975V32.0013H34.1024V22.889ZM44.1991 9.88953H46.2689V32.7081H44.1991V9.88953ZM27.792 24.0249L27.5143 22.258C28.9279 22.258 30.476 22.2412 32.1588 22.2075C33.8584 22.1738 35.6001 22.0981 37.3839 21.9803C39.1844 21.8625 40.9093 21.6774 42.5584 21.425L42.7099 22.99C41.0102 23.3097 39.277 23.5453 37.5101 23.6968C35.7431 23.8314 34.0267 23.9155 32.3607 23.9492C30.7116 23.9828 29.1887 24.0081 27.792 24.0249ZM67.3691 9.86429H69.4894V32.7081H67.3691V9.86429ZM57.1209 15.2913H58.8121V17.2601C58.8121 18.4717 58.6522 19.6497 58.3325 20.794C58.0128 21.9214 57.5584 22.9732 56.9695 23.9492C56.3973 24.9252 55.7158 25.7834 54.9249 26.5238C54.1508 27.2643 53.301 27.8532 52.3755 28.2908L51.2143 26.6753C52.0557 26.2882 52.8298 25.7666 53.5366 25.1103C54.2602 24.454 54.8828 23.7136 55.4045 22.889C55.943 22.0476 56.3637 21.1473 56.6666 20.1882C56.9695 19.229 57.1209 18.253 57.1209 17.2601V15.2913ZM57.4995 15.2913H59.1907V17.2601C59.1907 18.2025 59.3422 19.1364 59.6451 20.0619C59.948 20.9707 60.3687 21.8289 60.9072 22.6366C61.4457 23.4275 62.0767 24.1343 62.8003 24.7569C63.5239 25.3795 64.3148 25.8844 65.173 26.2714L64.0119 27.8869C63.0864 27.4662 62.2282 26.9025 61.4373 26.1957C60.6463 25.4721 59.9564 24.6475 59.3674 23.722C58.7785 22.7796 58.3157 21.7616 57.9791 20.6678C57.6594 19.5739 57.4995 18.4381 57.4995 17.2601V15.2913ZM51.8202 13.8272H64.3905V15.5184H51.8202V13.8272ZM57.0957 10.2934H59.1907V14.7612H57.0957V10.2934Z" fill="black"/>
</svg>
