<svg width="307" height="178" viewBox="0 0 307 178" fill="none" xmlns="http://www.w3.org/2000/svg">
<path d="M19.65 145.04H22.83V161.15H19.65V145.04ZM21.93 151.88H26.64V154.49H21.93V151.88ZM13.95 161.66C15.83 161.66 17.45 161.88 18.81 162.32C20.17 162.76 21.22 163.38 21.96 164.18C22.7 164.98 23.07 165.94 23.07 167.06C23.07 168.18 22.7 169.15 21.96 169.97C21.22 170.77 20.17 171.38 18.81 171.8C17.45 172.24 15.83 172.46 13.95 172.46C12.09 172.46 10.47 172.24 9.09 171.8C7.73 171.38 6.68 170.77 5.94 169.97C5.2 169.15 4.83 168.18 4.83 167.06C4.83 165.94 5.2 164.98 5.94 164.18C6.68 163.38 7.73 162.76 9.09 162.32C10.47 161.88 12.09 161.66 13.95 161.66ZM13.95 164.21C12.69 164.21 11.61 164.32 10.71 164.54C9.81 164.76 9.12 165.08 8.64 165.5C8.16 165.92 7.92 166.44 7.92 167.06C7.92 167.68 8.16 168.21 8.64 168.65C9.12 169.07 9.81 169.39 10.71 169.61C11.61 169.83 12.69 169.94 13.95 169.94C15.21 169.94 16.29 169.83 17.19 169.61C18.11 169.39 18.8 169.07 19.26 168.65C19.74 168.21 19.98 167.68 19.98 167.06C19.98 166.44 19.74 165.92 19.26 165.5C18.8 165.08 18.11 164.76 17.19 164.54C16.29 164.32 15.21 164.21 13.95 164.21ZM2.46 156.77H4.68C6.64 156.77 8.32 156.75 9.72 156.71C11.14 156.65 12.43 156.56 13.59 156.44C14.77 156.3 15.94 156.11 17.1 155.87L17.43 158.39C16.25 158.63 15.06 158.82 13.86 158.96C12.66 159.1 11.33 159.19 9.87 159.23C8.41 159.27 6.68 159.29 4.68 159.29H2.46V156.77ZM2.46 147.02H14.64V149.57H5.58V158.45H2.46V147.02ZM48.4177 145.07H51.5677V165.11H48.4177V145.07ZM33.6877 169.37H52.3477V171.92H33.6877V169.37ZM33.6877 163.25H36.8077V170.63H33.6877V163.25ZM35.7877 146.57H38.3977V149.3C38.3977 151.1 38.0977 152.8 37.4977 154.4C36.8977 155.98 36.0277 157.37 34.8877 158.57C33.7477 159.77 32.3577 160.68 30.7177 161.3L29.0977 158.81C30.5377 158.27 31.7577 157.51 32.7577 156.53C33.7577 155.53 34.5077 154.41 35.0077 153.17C35.5277 151.91 35.7877 150.62 35.7877 149.3V146.57ZM36.4177 146.57H38.9677V149.3C38.9677 150.28 39.1077 151.23 39.3877 152.15C39.6877 153.05 40.1177 153.9 40.6777 154.7C41.2577 155.5 41.9577 156.21 42.7777 156.83C43.5977 157.45 44.5377 157.94 45.5977 158.3L43.9777 160.82C42.3777 160.22 41.0077 159.36 39.8677 158.24C38.7277 157.1 37.8677 155.77 37.2877 154.25C36.7077 152.71 36.4177 151.06 36.4177 149.3V146.57ZM68.9653 145.49C72.0453 145.49 74.4353 145.9 76.1353 146.72C77.8553 147.52 78.7153 148.68 78.7153 150.2C78.7153 151.72 77.8553 152.89 76.1353 153.71C74.4353 154.53 72.0453 154.94 68.9653 154.94C65.8853 154.94 63.4853 154.53 61.7653 153.71C60.0453 152.89 59.1853 151.72 59.1853 150.2C59.1853 148.68 60.0453 147.52 61.7653 146.72C63.4853 145.9 65.8853 145.49 68.9653 145.49ZM68.9353 147.83C67.5353 147.83 66.3453 147.92 65.3653 148.1C64.4053 148.28 63.6753 148.55 63.1753 148.91C62.6953 149.25 62.4553 149.68 62.4553 150.2C62.4553 150.72 62.6953 151.16 63.1753 151.52C63.6753 151.88 64.4053 152.15 65.3653 152.33C66.3453 152.51 67.5353 152.6 68.9353 152.6C70.3753 152.6 71.5753 152.51 72.5353 152.33C73.4953 152.15 74.2253 151.88 74.7253 151.52C75.2253 151.16 75.4753 150.72 75.4753 150.2C75.4753 149.68 75.2253 149.25 74.7253 148.91C74.2253 148.55 73.4953 148.28 72.5353 148.1C71.5753 147.92 70.3753 147.83 68.9353 147.83ZM56.5753 156.53H81.3553V159.02H56.5753V156.53ZM59.4853 161H78.2353V167.57H62.6353V170.48H59.5453V165.35H75.1453V163.37H59.4853V161ZM59.5453 169.82H79.0153V172.22H59.5453V169.82ZM99.8213 146.24C101.201 146.24 102.421 146.49 103.481 146.99C104.561 147.47 105.401 148.14 106.001 149C106.621 149.86 106.931 150.86 106.931 152C106.931 153.12 106.621 154.11 106.001 154.97C105.401 155.83 104.561 156.51 103.481 157.01C102.421 157.49 101.201 157.73 99.8213 157.73C98.4613 157.73 97.2513 157.49 96.1913 157.01C95.1313 156.51 94.2913 155.83 93.6713 154.97C93.0713 154.11 92.7713 153.12 92.7713 152C92.7713 150.86 93.0713 149.86 93.6713 149C94.2913 148.14 95.1313 147.47 96.1913 146.99C97.2513 146.49 98.4613 146.24 99.8213 146.24ZM99.8213 148.82C99.0413 148.82 98.3413 148.95 97.7213 149.21C97.1213 149.47 96.6413 149.84 96.2813 150.32C95.9413 150.78 95.7713 151.34 95.7713 152C95.7713 152.64 95.9413 153.2 96.2813 153.68C96.6413 154.14 97.1213 154.5 97.7213 154.76C98.3413 155.02 99.0413 155.15 99.8213 155.15C100.621 155.15 101.321 155.02 101.921 154.76C102.541 154.5 103.021 154.14 103.361 153.68C103.721 153.2 103.901 152.64 103.901 152C103.901 151.34 103.721 150.78 103.361 150.32C103.021 149.84 102.541 149.47 101.921 149.21C101.321 148.95 100.621 148.82 99.8213 148.82ZM98.3813 160.64H101.561V171.62H98.3813V160.64ZM110.471 145.07H113.591V172.49H110.471V145.07ZM91.3013 162.32L90.9113 159.74C92.5713 159.74 94.4013 159.72 96.4013 159.68C98.4013 159.64 100.451 159.55 102.551 159.41C104.671 159.27 106.711 159.05 108.671 158.75L108.881 161.09C106.881 161.47 104.831 161.75 102.731 161.93C100.651 162.11 98.6313 162.22 96.6713 162.26C94.7313 162.3 92.9413 162.32 91.3013 162.32ZM136.779 145.07H139.899V165.59H136.779V145.07ZM138.969 153.8H143.769V156.41H138.969V153.8ZM118.539 148.19H134.709V150.68H118.539V148.19ZM126.639 151.97C127.939 151.97 129.089 152.19 130.089 152.63C131.089 153.05 131.869 153.65 132.429 154.43C132.989 155.21 133.269 156.12 133.269 157.16C133.269 158.18 132.989 159.08 132.429 159.86C131.869 160.64 131.089 161.25 130.089 161.69C129.089 162.13 127.939 162.35 126.639 162.35C125.319 162.35 124.159 162.13 123.159 161.69C122.159 161.25 121.379 160.64 120.819 159.86C120.259 159.08 119.979 158.18 119.979 157.16C119.979 156.12 120.259 155.21 120.819 154.43C121.379 153.65 122.159 153.05 123.159 152.63C124.159 152.19 125.319 151.97 126.639 151.97ZM126.639 154.37C125.559 154.37 124.679 154.62 123.999 155.12C123.319 155.62 122.979 156.3 122.979 157.16C122.979 158.02 123.319 158.7 123.999 159.2C124.679 159.68 125.559 159.92 126.639 159.92C127.719 159.92 128.589 159.68 129.249 159.2C129.909 158.7 130.239 158.02 130.239 157.16C130.239 156.3 129.909 155.62 129.249 155.12C128.589 154.62 127.719 154.37 126.639 154.37ZM125.049 145.07H128.199V149.45H125.049V145.07ZM122.559 169.37H141.039V171.92H122.559V169.37ZM122.559 164H125.709V170.48H122.559V164ZM165.145 150.92H173.065V153.5H165.145V150.92ZM165.145 159.53H173.065V162.11H165.145V159.53ZM160.225 147.05C161.585 147.05 162.785 147.45 163.825 148.25C164.865 149.05 165.685 150.17 166.285 151.61C166.885 153.05 167.185 154.75 167.185 156.71C167.185 158.69 166.885 160.41 166.285 161.87C165.685 163.31 164.865 164.43 163.825 165.23C162.785 166.01 161.585 166.4 160.225 166.4C158.885 166.4 157.685 166.01 156.625 165.23C155.585 164.43 154.765 163.31 154.165 161.87C153.585 160.41 153.295 158.69 153.295 156.71C153.295 154.75 153.585 153.05 154.165 151.61C154.765 150.17 155.585 149.05 156.625 148.25C157.685 147.45 158.885 147.05 160.225 147.05ZM160.225 149.9C159.445 149.9 158.755 150.17 158.155 150.71C157.575 151.25 157.115 152.03 156.775 153.05C156.455 154.07 156.295 155.29 156.295 156.71C156.295 158.15 156.455 159.38 156.775 160.4C157.115 161.42 157.575 162.21 158.155 162.77C158.755 163.31 159.445 163.58 160.225 163.58C161.025 163.58 161.725 163.31 162.325 162.77C162.925 162.21 163.385 161.42 163.705 160.4C164.045 159.38 164.215 158.15 164.215 156.71C164.215 155.29 164.045 154.07 163.705 153.05C163.385 152.03 162.925 151.25 162.325 150.71C161.725 150.17 161.025 149.9 160.225 149.9ZM172.465 145.04H175.615V172.52H172.465V145.04ZM187.103 146.54H189.713V149.21C189.713 151.01 189.413 152.69 188.813 154.25C188.213 155.79 187.333 157.14 186.173 158.3C185.033 159.44 183.633 160.32 181.973 160.94L180.323 158.39C181.803 157.89 183.043 157.18 184.043 156.26C185.043 155.32 185.803 154.24 186.323 153.02C186.843 151.8 187.103 150.53 187.103 149.21V146.54ZM187.733 146.54H190.283V149.06C190.283 150.32 190.523 151.52 191.003 152.66C191.503 153.8 192.233 154.8 193.193 155.66C194.153 156.52 195.323 157.18 196.702 157.64L195.053 160.1C193.493 159.54 192.163 158.72 191.063 157.64C189.963 156.56 189.133 155.29 188.573 153.83C188.013 152.37 187.733 150.78 187.733 149.06V146.54ZM200.003 145.07H203.153V161.21H200.003V145.07ZM194.033 161.96C196.893 161.96 199.143 162.42 200.783 163.34C202.443 164.26 203.273 165.55 203.273 167.21C203.273 168.87 202.443 170.15 200.783 171.05C199.143 171.97 196.893 172.43 194.033 172.43C191.173 172.43 188.913 171.97 187.253 171.05C185.593 170.15 184.763 168.87 184.763 167.21C184.763 165.55 185.593 164.26 187.253 163.34C188.913 162.42 191.173 161.96 194.033 161.96ZM194.033 164.42C192.733 164.42 191.623 164.53 190.703 164.75C189.803 164.95 189.113 165.26 188.633 165.68C188.153 166.1 187.913 166.61 187.913 167.21C187.913 167.79 188.153 168.29 188.633 168.71C189.113 169.13 189.803 169.45 190.703 169.67C191.623 169.89 192.733 170 194.033 170C195.333 170 196.433 169.89 197.333 169.67C198.233 169.45 198.923 169.13 199.403 168.71C199.903 168.29 200.153 167.79 200.153 167.21C200.153 166.61 199.903 166.1 199.403 165.68C198.923 165.26 198.233 164.95 197.333 164.75C196.433 164.53 195.333 164.42 194.033 164.42ZM194.482 150.5H200.573V153.08H194.482V150.5ZM229.388 152.42H236.048V154.97H229.388V152.42ZM234.338 145.07H237.488V165.11H234.338V145.07ZM219.728 169.37H238.208V171.92H219.728V169.37ZM219.728 163.37H222.878V170.78H219.728V163.37ZM221.468 148.55H224.048V150.56C224.048 152.24 223.738 153.84 223.118 155.36C222.518 156.86 221.648 158.17 220.508 159.29C219.368 160.41 217.988 161.26 216.368 161.84L214.748 159.35C215.828 158.97 216.778 158.48 217.598 157.88C218.438 157.28 219.148 156.59 219.728 155.81C220.308 155.03 220.738 154.19 221.018 153.29C221.318 152.39 221.468 151.48 221.468 150.56V148.55ZM222.098 148.55H224.648V150.53C224.648 151.67 224.898 152.78 225.398 153.86C225.898 154.94 226.628 155.91 227.588 156.77C228.548 157.63 229.718 158.3 231.098 158.78L229.538 161.24C227.958 160.68 226.608 159.87 225.488 158.81C224.388 157.73 223.548 156.48 222.968 155.06C222.388 153.62 222.098 152.11 222.098 150.53V148.55ZM215.678 147.14H230.348V149.66H215.678V147.14ZM242.346 158.87H267.186V161.39H242.346V158.87ZM253.446 160.43H256.596V166.52H253.446V160.43ZM245.496 146.27H264.006V156.17H245.496V146.27ZM260.886 148.76H248.556V153.68H260.886V148.76ZM245.376 169.37H264.426V171.92H245.376V169.37ZM245.376 164.03H248.526V170.24H245.376V164.03ZM288.064 145.04H291.214V172.46H288.064V145.04ZM290.404 155.87H295.354V158.48H290.404V155.87ZM280.984 147.95H284.044C284.044 150.61 283.634 153.15 282.814 155.57C282.014 157.97 280.704 160.18 278.884 162.2C277.084 164.22 274.684 165.98 271.684 167.48L269.944 165.08C272.424 163.8 274.474 162.34 276.094 160.7C277.734 159.06 278.954 157.22 279.754 155.18C280.574 153.14 280.984 150.9 280.984 148.46V147.95ZM271.324 147.95H282.604V150.5H271.324V147.95Z" fill="white"/>
<path d="M85.6273 93.3786H77.9297V119.333H66.8942V62.3837H77.9297V83.9779H85.6273V93.3786ZM60.559 118.651H28.6785V62.4518H60.559V118.651ZM39.714 109.251H49.5234V71.8525H39.714V109.251ZM124.346 72.738V73.0105L124.278 73.5555V73.828C123.529 84.9997 122.916 97.1933 120.94 108.161C119.442 116.54 113.175 119.196 105.341 119.196C98.2563 119.196 89.6049 117.425 89.6049 108.638V108.297L89.6731 107.684V107.411C90.5586 96.444 91.2398 85.2722 92.8747 74.3729C94.2371 65.0404 100.504 62.0431 109.224 62.0431C116.036 62.0431 124.346 64.5636 124.346 72.738ZM141.922 119.333H130.886V62.3837H141.922V119.333ZM105.273 109.932C108.679 109.932 109.837 108.297 110.382 105.027C111.812 96.0353 112.63 86.7709 113.379 77.7108C113.379 74.5773 113.038 71.3756 108.951 71.3756C105.136 71.3756 103.91 74.5773 103.433 77.8471C102.071 86.839 101.254 96.0353 100.64 105.095V105.64C100.64 108.91 102.343 109.932 105.273 109.932ZM151.076 82.0024C151.076 79.0732 151.553 76.0759 151.962 73.2149C153.256 64.7679 162.18 62.1112 169.605 62.1112C177.439 62.1112 184.796 65.1085 184.796 74.0323C184.796 76.8253 184.251 79.6863 183.774 82.4112C182.207 90.79 173.556 92.4249 166.267 92.4249C159.728 92.4249 151.076 90.0407 151.076 82.0024ZM178.597 106.866H192.153V62.3837H203.189V119.333H192.153V116.54H178.597V106.866ZM168.856 71.4437C163.542 71.4437 162.248 74.3729 162.248 79.2095C162.248 82.343 164.428 83.1605 167.221 83.1605C172.602 83.1605 174.033 80.5719 174.033 75.531C174.033 72.6699 171.308 71.4437 168.856 71.4437ZM174.033 119.333H161.567V104.482H149.305V94.6047H189.156V104.482H174.033V119.333ZM264.047 119.333H253.011V93.9235H240.545C239.115 102.37 237.616 110.886 236.117 119.333H224.809C226.308 110.954 227.807 102.575 229.169 94.1279H210.708V84.7273H230.668C230.872 83.6373 231.008 82.6155 231.145 81.5256L232.166 75.0541C232.303 73.9642 232.507 72.9424 232.643 71.8525H211.73V62.4518H245.586C244.496 69.4682 243.406 76.5528 242.248 83.5692H253.011V62.3837H264.047V119.333Z" fill="white"/>
<path fill-rule="evenodd" clip-rule="evenodd" d="M260.487 8.64239C263.974 7.98354 267.575 8.3015 270.893 9.56115C274.21 10.8208 277.115 12.9731 279.286 15.7802C281.457 18.5873 282.81 21.94 283.195 25.4678C283.58 28.9956 282.983 32.5611 281.468 35.7704L293.386 47.2775C294.29 48.1489 295.003 49.1983 295.48 50.3596C295.958 51.5208 296.189 52.7685 296.159 54.0236C296.13 55.2788 295.84 56.5142 295.308 57.6516C294.776 58.789 294.015 59.8037 293.07 60.6315C292.126 61.4592 291.021 62.082 289.824 62.4605C288.627 62.839 287.364 62.9648 286.116 62.8302C284.867 62.6955 283.661 62.3032 282.572 61.6781C281.483 61.0531 280.536 60.2088 279.79 59.1987L269.941 45.8875C266.561 46.9724 262.947 47.1014 259.498 46.2603C256.049 45.4192 252.9 43.6407 250.399 41.1215C247.898 38.6024 246.142 35.4406 245.326 31.9858C244.51 28.5311 244.665 24.9179 245.774 21.5457C245.931 21.0719 246.212 20.649 246.588 20.3214C246.964 19.9938 247.422 19.7736 247.912 19.6839C248.403 19.5943 248.909 19.6385 249.377 19.812C249.845 19.9855 250.257 20.2817 250.571 20.6697L258.33 30.2897L264.784 28.3843L267.521 22.2266L258.989 13.2916C258.643 12.9299 258.402 12.4815 258.29 11.9938C258.178 11.5061 258.199 10.9971 258.353 10.5208C258.506 10.0444 258.786 9.61842 259.161 9.28777C259.537 8.95712 259.995 8.73413 260.487 8.64239Z" fill="white"/>
</svg>
