<svg width="130" height="33" viewBox="0 0 130 33" fill="none" xmlns="http://www.w3.org/2000/svg">
<path d="M31.4496 17.8296H27.2026V32.149H21.114V0.728934H27.2026V12.643H31.4496V17.8296ZM17.6187 31.7731H0.0295243V0.76652H17.6187V31.7731ZM6.1181 26.5866H11.5302V5.95308H6.1181V26.5866ZM52.8118 6.44167V6.592L52.7743 6.89268V7.04301C52.3608 13.2068 52.0226 19.9342 50.9326 25.9852C50.1058 30.608 46.6481 32.0738 42.326 32.0738C38.4172 32.0738 33.6441 31.0966 33.6441 26.2483V26.0604L33.6817 25.7222V25.5718C34.1703 19.5208 34.5461 13.3571 35.4481 7.34368C36.1998 2.1947 39.6575 0.541015 44.4682 0.541015C48.2266 0.541015 52.8118 1.93162 52.8118 6.44167ZM62.5085 32.149H56.4199V0.728934H62.5085V32.149ZM42.2884 26.9624C44.1676 26.9624 44.8065 26.0604 45.1072 24.2564C45.8964 19.2953 46.3474 14.1839 46.7608 9.18529C46.7608 7.45643 46.5729 5.68999 44.3179 5.68999C42.2132 5.68999 41.5367 7.45643 41.2736 9.26045C40.5219 14.2215 40.0709 19.2953 39.7327 24.294V24.5946C39.7327 26.3987 40.6723 26.9624 42.2884 26.9624ZM67.5594 11.5531C67.5594 9.93696 67.8224 8.28328 68.0479 6.70476C68.762 2.04437 73.6855 0.578601 77.7821 0.578601C82.1043 0.578601 86.1633 2.23229 86.1633 7.15576C86.1633 8.6967 85.8627 10.2752 85.5996 11.7786C84.7351 16.4014 79.962 17.3034 75.9405 17.3034C72.3325 17.3034 67.5594 15.988 67.5594 11.5531ZM82.7432 25.2711H90.2224V0.728934H96.311V32.149H90.2224V30.608H82.7432V25.2711ZM77.3687 5.72758C74.4372 5.72758 73.7231 7.34368 73.7231 10.0121C73.7231 11.741 74.9258 12.192 76.4667 12.192C79.4358 12.192 80.2251 10.7638 80.2251 7.9826C80.2251 6.40409 78.7217 5.72758 77.3687 5.72758ZM80.2251 32.149H73.3473V23.9557H66.5822V18.5061H88.5687V23.9557H80.2251V32.149ZM129.888 32.149H123.799V18.1302H116.922C116.132 22.7906 115.305 27.4886 114.479 32.149H108.24C109.067 27.5262 109.893 22.9034 110.645 18.243H100.46V13.0564H111.472C111.585 12.4551 111.66 11.8913 111.735 11.29L112.299 7.71952C112.374 7.11818 112.487 6.55442 112.562 5.95308H101.024V0.76652H119.703C119.101 4.63765 118.5 8.54636 117.861 12.4175H123.799V0.728934H129.888V32.149Z" fill="#0D5BDA"/>
</svg>
