<svg width="98" height="98" viewBox="0 0 98 98" fill="none" xmlns="http://www.w3.org/2000/svg">
<path d="M16.3337 16.3333H28.5837L36.7503 8.16666H61.2503L69.417 16.3333H81.667C83.8329 16.3333 85.9101 17.1937 87.4417 18.7253C88.9732 20.2568 89.8336 22.3341 89.8336 24.5V73.5C89.8336 75.6659 88.9732 77.7431 87.4417 79.2747C85.9101 80.8062 83.8329 81.6667 81.667 81.6667H16.3337C14.1677 81.6667 12.0905 80.8062 10.559 79.2747C9.02741 77.7431 8.16699 75.6659 8.16699 73.5V24.5C8.16699 22.3341 9.02741 20.2568 10.559 18.7253C12.0905 17.1937 14.1677 16.3333 16.3337 16.3333ZM49.0003 28.5833C43.5855 28.5833 38.3924 30.7344 34.5636 34.5632C30.7347 38.3921 28.5837 43.5852 28.5837 49C28.5837 54.4148 30.7347 59.6079 34.5636 63.4368C38.3924 67.2656 43.5855 69.4167 49.0003 69.4167C54.4152 69.4167 59.6082 67.2656 63.4371 63.4368C67.266 59.6079 69.417 54.4148 69.417 49C69.417 43.5852 67.266 38.3921 63.4371 34.5632C59.6082 30.7344 54.4152 28.5833 49.0003 28.5833ZM49.0003 36.75C52.2492 36.75 55.3651 38.0406 57.6624 40.3379C59.9597 42.6353 61.2503 45.7511 61.2503 49C61.2503 52.2489 59.9597 55.3647 57.6624 57.6621C55.3651 59.9594 52.2492 61.25 49.0003 61.25C45.7514 61.25 42.6356 59.9594 40.3383 57.6621C38.0409 55.3647 36.7503 52.2489 36.7503 49C36.7503 45.7511 38.0409 42.6353 40.3383 40.3379C42.6356 38.0406 45.7514 36.75 49.0003 36.75Z" fill="black"/>
</svg>
