<svg width="119" height="24" viewBox="0 0 119 24" fill="none" xmlns="http://www.w3.org/2000/svg">
<path d="M15.8459 0.625089H17.941V23.4941H15.8459V0.625089ZM5.90066 2.39201C7.02813 2.39201 8.02097 2.72015 8.87919 3.37644C9.75423 4.01589 10.4358 4.93301 10.9238 6.12779C11.4286 7.32256 11.681 8.72768 11.681 10.3432C11.681 11.9586 11.4286 13.3637 10.9238 14.5585C10.4358 15.7533 9.75423 16.6788 8.87919 17.3351C8.02097 17.9914 7.02813 18.3195 5.90066 18.3195C4.7732 18.3195 3.77194 17.9914 2.8969 17.3351C2.02185 16.6788 1.33191 15.7533 0.827074 14.5585C0.339067 13.3637 0.0950637 11.9586 0.0950637 10.3432C0.0950637 8.72768 0.339067 7.32256 0.827074 6.12779C1.33191 4.93301 2.02185 4.01589 2.8969 3.37644C3.77194 2.72015 4.7732 2.39201 5.90066 2.39201ZM5.90066 4.2599C5.14341 4.2599 4.47871 4.51231 3.90657 5.01715C3.35125 5.50516 2.91372 6.21193 2.594 7.13746C2.27427 8.04616 2.1144 9.11472 2.1144 10.3432C2.1144 11.5716 2.27427 12.6486 2.594 13.5741C2.91372 14.4828 3.35125 15.1896 3.90657 15.6944C4.47871 16.1992 5.14341 16.4517 5.90066 16.4517C6.64109 16.4517 7.28896 16.1992 7.84427 15.6944C8.41642 15.1896 8.86236 14.4828 9.18209 13.5741C9.50182 12.6486 9.66168 11.5716 9.66168 10.3432C9.66168 9.11472 9.50182 8.04616 9.18209 7.13746C8.86236 6.21193 8.41642 5.50516 7.84427 5.01715C7.28896 4.51231 6.64109 4.2599 5.90066 4.2599ZM33.2607 7.06173H39.7983V8.77817H33.2607V7.06173ZM39.1673 0.65033H41.2624V17.537H39.1673V0.65033ZM26.5969 21.2476H41.7924V22.964H26.5969V21.2476ZM26.5969 15.8963H28.692V22.1058H26.5969V15.8963ZM23.5931 2.16483H25.6882V6.17827H31.8472V2.16483H33.917V13.6498H23.5931V2.16483ZM25.6882 7.81898V11.9586H31.8472V7.81898H25.6882ZM46.7126 9.5859H48.4795C50.0277 9.5859 51.3823 9.56907 52.5434 9.53542C53.7214 9.48494 54.8152 9.4008 55.8249 9.283C56.8514 9.16521 57.8779 9.00534 58.9043 8.80341L59.1568 10.4694C58.0966 10.6881 57.0449 10.8564 56.0016 10.9742C54.9582 11.092 53.8308 11.1761 52.6192 11.2266C51.4244 11.2603 50.0445 11.2771 48.4795 11.2771H46.7126V9.5859ZM46.7126 1.93766H56.784V3.62886H48.7824V10.5703H46.7126V1.93766ZM61.3276 0.625089H63.4226V12.1101H61.3276V0.625089ZM62.8421 5.42102H66.7798V7.1627H62.8421V5.42102ZM48.9086 13.2712H63.4226V18.9253H51.0289V22.4339H48.9843V17.3099H61.3528V14.9624H48.9086V13.2712ZM48.9843 21.4495H64.2304V23.166H48.9843V21.4495ZM83.6552 6.15303H88.123V7.86947H83.6552V6.15303ZM83.6552 13.0945H88.123V14.8362H83.6552V13.0945ZM91.9598 0.625089H93.9791V23.4689H91.9598V0.625089ZM87.4667 1.10468H89.4608V22.3077H87.4667V1.10468ZM79.6923 2.54346C80.6851 2.54346 81.5434 2.86319 82.267 3.50265C83.0074 4.1421 83.5795 5.05922 83.9834 6.25399C84.3873 7.44877 84.5892 8.85389 84.5892 10.4694C84.5892 12.1017 84.3873 13.5152 83.9834 14.71C83.5795 15.9047 83.0074 16.8303 82.267 17.4866C81.5434 18.126 80.6851 18.4458 79.6923 18.4458C78.7331 18.4458 77.8833 18.126 77.1429 17.4866C76.4193 16.8303 75.8556 15.9047 75.4517 14.71C75.0478 13.5152 74.8459 12.1017 74.8459 10.4694C74.8459 8.85389 75.0478 7.44877 75.4517 6.25399C75.8556 5.05922 76.4193 4.1421 77.1429 3.50265C77.8833 2.86319 78.7331 2.54346 79.6923 2.54346ZM79.6923 4.48707C79.1033 4.48707 78.5817 4.73108 78.1273 5.21908C77.6898 5.70709 77.3532 6.39703 77.1176 7.28891C76.882 8.18078 76.7643 9.24093 76.7643 10.4694C76.7643 11.6978 76.882 12.7664 77.1176 13.6751C77.3532 14.5669 77.6898 15.2569 78.1273 15.7449C78.5817 16.2329 79.1033 16.4769 79.6923 16.4769C80.3149 16.4769 80.845 16.2329 81.2825 15.7449C81.72 15.2569 82.0566 14.5669 82.2922 13.6751C82.5446 12.7664 82.6708 11.6978 82.6708 10.4694C82.6708 9.24093 82.5446 8.18078 82.2922 7.28891C82.0566 6.39703 81.72 5.70709 81.2825 5.21908C80.845 4.73108 80.3149 4.48707 79.6923 4.48707ZM114.877 4.10845H118.815V5.85013H114.877V4.10845ZM114.877 8.9801H118.815V10.747H114.877V8.9801ZM113.413 0.625089H115.508V14.1799H113.413V0.625089ZM100.666 15.2653H115.508V23.4689H113.413V16.9817H100.666V15.2653ZM104.15 1.98814C105.311 1.98814 106.337 2.22373 107.229 2.69491C108.121 3.14926 108.819 3.7803 109.324 4.58804C109.846 5.39578 110.107 6.32972 110.107 7.38987C110.107 8.46685 109.846 9.40921 109.324 10.2169C108.819 11.0247 108.121 11.6557 107.229 12.1101C106.337 12.5644 105.311 12.7916 104.15 12.7916C103.022 12.7916 102.004 12.5644 101.095 12.1101C100.203 11.6557 99.4967 11.0247 98.975 10.2169C98.4533 9.40921 98.1925 8.46685 98.1925 7.38987C98.1925 6.32972 98.4533 5.39578 98.975 4.58804C99.4967 3.7803 100.203 3.14926 101.095 2.69491C102.004 2.22373 103.022 1.98814 104.15 1.98814ZM104.15 3.78031C103.409 3.78031 102.744 3.93176 102.155 4.23466C101.566 4.53756 101.095 4.96667 100.742 5.52198C100.405 6.06047 100.237 6.6831 100.237 7.38987C100.237 8.11347 100.405 8.75293 100.742 9.30824C101.095 9.84673 101.566 10.2674 102.155 10.5703C102.744 10.8732 103.409 11.0247 104.15 11.0247C104.907 11.0247 105.58 10.8732 106.169 10.5703C106.758 10.2674 107.221 9.84673 107.557 9.30824C107.911 8.75293 108.087 8.11347 108.087 7.38987C108.087 6.6831 107.911 6.06047 107.557 5.52198C107.221 4.96667 106.758 4.53756 106.169 4.23466C105.58 3.93176 104.907 3.78031 104.15 3.78031Z" fill="black"/>
</svg>
