<svg width="27" height="27" viewBox="0 0 27 27" fill="none" xmlns="http://www.w3.org/2000/svg">
<path d="M17.0791 15.8979H16.2127L15.9056 15.6018C16.591 14.8056 17.0919 13.8677 17.3725 12.8553C17.6531 11.8428 17.7064 10.7809 17.5287 9.74548C17.0133 6.69669 14.4689 4.26205 11.3982 3.88918C10.3187 3.7526 9.22216 3.8648 8.19263 4.21718C7.1631 4.56957 6.22783 5.1528 5.45838 5.92225C4.68893 6.6917 4.1057 7.62697 3.75332 8.6565C3.40093 9.68603 3.28873 10.7825 3.42531 11.8621C3.79818 14.9328 6.23283 17.4771 9.28162 17.9926C10.3171 18.1703 11.379 18.1169 12.3914 17.8363C13.4038 17.5557 14.3417 17.0548 15.1379 16.3695L15.434 16.6765V17.5429L20.0949 22.2038C20.5446 22.6535 21.2794 22.6535 21.729 22.2038C22.1786 21.7542 22.1786 21.0194 21.729 20.5698L17.0791 15.8979ZM10.4989 15.8979C7.76819 15.8979 5.56385 13.6936 5.56385 10.9628C5.56385 8.23206 7.76819 6.02772 10.4989 6.02772C13.2297 6.02772 15.434 8.23206 15.434 10.9628C15.434 13.6936 13.2297 15.8979 10.4989 15.8979Z" fill="black"/>
</svg>
