<svg width="33" height="41" viewBox="0 0 33 41" fill="none" xmlns="http://www.w3.org/2000/svg">
<path d="M3.80914 41C2.72328 41 1.81736 40.6492 1.09136 39.9477C0.365356 39.2461 0.00157143 38.3707 0 37.3214V3.67861C0 2.63083 0.363785 1.75617 1.09136 1.05461C1.81893 0.353056 2.72486 0.00151852 3.80914 0H20.7098C21.285 0 21.8271 0.116167 22.3363 0.3485C22.8454 0.579315 23.2752 0.911871 23.6256 1.34617L32.1066 11.1429C32.3895 11.483 32.6095 11.8536 32.7666 12.2544C32.9238 12.6553 33.0015 13.0782 33 13.5232V35.9183C33 36.7428 32.6095 37.3077 31.8285 37.6129C31.0475 37.9182 30.3592 37.7823 29.7636 37.2052L20.5802 28.3583C19.9123 28.8048 19.2523 29.1252 18.6002 29.3196C17.9496 29.5139 17.2496 29.6111 16.5 29.6111C14.5561 29.6111 12.8912 28.9422 11.5052 27.6044C10.1192 26.2666 9.42699 24.6577 9.42857 22.7778C9.43014 20.8979 10.1223 19.289 11.5052 17.9512C12.8881 16.6133 14.553 15.9444 16.5 15.9444C18.447 15.9444 20.1119 16.6133 21.4948 17.9512C22.8776 19.289 23.5698 20.8979 23.5714 22.7778C23.5714 23.5629 23.4638 24.269 23.2485 24.8961C23.0332 25.5233 22.7087 26.1307 22.275 26.7183L30.6428 34.9183V12.9833L21.3321 2.27778H3.80914C3.44614 2.27778 3.113 2.42356 2.80971 2.71511C2.50643 3.00667 2.35557 3.32783 2.35714 3.67861V37.3214C2.35714 37.6706 2.508 37.9918 2.80971 38.2849C3.11143 38.578 3.44378 38.7237 3.80678 38.7222H24.1112C24.5041 38.7222 24.7987 38.8399 24.9951 39.0753C25.1916 39.3106 25.2898 39.5696 25.2898 39.852C25.2898 40.1344 25.1916 40.3964 24.9951 40.6378C24.7987 40.8793 24.5041 41 24.1112 41H3.80914ZM16.5 27.3333C17.7964 27.3333 18.9066 26.8876 19.8306 25.9963C20.7546 25.1049 21.2158 24.0321 21.2143 22.7778C21.2127 21.5235 20.7515 20.4514 19.8306 19.5616C18.9098 18.6717 17.7996 18.2253 16.5 18.2222C15.2004 18.2192 14.091 18.6656 13.1717 19.5616C12.2524 20.4575 11.7904 21.5296 11.7857 22.7778C11.781 24.026 12.243 25.0988 13.1717 25.9963C14.1004 26.8937 15.2098 27.3394 16.5 27.3333Z" fill="black"/>
</svg>
