<svg width="32" height="30" viewBox="0 0 32 30" fill="none" xmlns="http://www.w3.org/2000/svg">
<path d="M20.7503 2.72918V27.2645C20.7503 28.9729 18.7332 29.8786 17.457 28.7433L10.3447 22.4195C10.1273 22.2267 9.84675 22.1202 9.55616 22.1203H3.72949C3.26166 22.1203 2.7984 22.0281 2.36618 21.8491C1.93396 21.6701 1.54123 21.4076 1.21042 21.0768C0.879615 20.746 0.617204 20.3533 0.438171 19.9211C0.259139 19.4889 0.166992 19.0256 0.166992 18.5578V11.4359C0.167412 10.4914 0.542931 9.58564 1.21098 8.91789C1.87904 8.25013 2.78493 7.87502 3.72949 7.87502H9.55616C9.84696 7.87467 10.1275 7.76762 10.3447 7.57418L17.4554 1.25193C18.7332 0.116683 20.7503 1.02235 20.7503 2.72918ZM27.071 5.33852C27.324 5.15105 27.6411 5.07177 27.9526 5.11809C28.2641 5.16441 28.5444 5.33254 28.7319 5.58552C30.7512 8.30916 31.8388 11.6111 31.8337 15.0016C31.838 18.3918 30.7498 21.6931 28.7303 24.4161C28.5409 24.6637 28.2616 24.8269 27.9529 24.8704C27.6441 24.9139 27.3306 24.8343 27.0801 24.6486C26.8296 24.463 26.6622 24.1863 26.614 23.8782C26.5657 23.5702 26.6406 23.2555 26.8224 23.0022C28.5387 20.6882 29.4632 17.8826 29.4587 15.0016C29.4635 12.1201 28.539 9.31384 26.8224 6.99943C26.7294 6.874 26.6621 6.73147 26.6243 6.57999C26.5864 6.42851 26.5788 6.27105 26.6019 6.11663C26.625 5.96221 26.6783 5.81386 26.7588 5.68007C26.8393 5.54628 26.9454 5.43126 27.071 5.33852ZM24.1434 9.25252C24.2805 9.17815 24.431 9.13152 24.5861 9.11531C24.7412 9.09909 24.8981 9.1136 25.0476 9.158C25.1971 9.20241 25.3365 9.27584 25.4576 9.3741C25.5787 9.47236 25.6794 9.59353 25.7537 9.73068C26.6023 11.2982 27.0837 13.0953 27.0837 15.0016C27.0845 16.8412 26.6274 18.6521 25.7537 20.2709C25.6794 20.4082 25.5789 20.5294 25.4578 20.6278C25.3367 20.7262 25.1974 20.7998 25.0479 20.8443C24.8984 20.8889 24.7415 20.9035 24.5863 20.8874C24.4312 20.8714 24.2806 20.8249 24.1434 20.7507C24.0062 20.6765 23.8849 20.5759 23.7865 20.4548C23.6882 20.3337 23.6146 20.1944 23.57 20.0449C23.5255 19.8954 23.5108 19.7386 23.5269 19.5834C23.543 19.4282 23.5894 19.2777 23.6637 19.1404C24.35 17.8689 24.7091 16.4465 24.7087 15.0016C24.7087 13.5006 24.3287 12.0914 23.6637 10.8612C23.5141 10.5842 23.4806 10.2592 23.5706 9.95755C23.6605 9.6559 23.8666 9.40232 24.1434 9.25252Z" fill="#0D5BDA"/>
</svg>
