<svg width="79" height="38" viewBox="0 0 79 38" fill="none" xmlns="http://www.w3.org/2000/svg">
<path d="M43.805 14.0797H49.9135V15.7709H43.805V14.0797ZM43.6031 18.8251H49.7621V20.5415H43.6031V18.8251ZM49.5602 9.88953H51.6552V23.5453H49.5602V9.88953ZM42.4167 11.5807H44.638C44.638 13.5328 44.2089 15.2913 43.3507 16.8562C42.5093 18.4212 41.2893 19.7675 39.6906 20.8949C38.1088 22.0056 36.2241 22.889 34.0365 23.5453L33.1783 21.8794C35.1135 21.3072 36.771 20.5668 38.1509 19.6581C39.5308 18.7326 40.5825 17.6724 41.3061 16.4776C42.0465 15.266 42.4167 13.9366 42.4167 12.4894V11.5807ZM34.3394 11.5807H43.8303V13.2972H34.3394V11.5807ZM44.2341 23.7977C45.7823 23.7977 47.1117 23.9744 48.2223 24.3278C49.3498 24.6812 50.2249 25.186 50.8475 25.8423C51.4701 26.4986 51.7814 27.2811 51.7814 28.1898C51.7814 29.1153 51.4701 29.9062 50.8475 30.5625C50.2249 31.202 49.3498 31.6984 48.2223 32.0518C47.1117 32.422 45.7823 32.6071 44.2341 32.6071C42.7028 32.6071 41.365 32.422 40.2207 32.0518C39.0932 31.6984 38.2182 31.202 37.5956 30.5625C36.9729 29.9062 36.6616 29.1153 36.6616 28.1898C36.6616 27.2811 36.9729 26.4986 37.5956 25.8423C38.2182 25.186 39.0932 24.6812 40.2207 24.3278C41.365 23.9744 42.7028 23.7977 44.2341 23.7977ZM44.2341 25.4637C43.1235 25.4637 42.1559 25.5731 41.3313 25.7918C40.5068 26.0106 39.8673 26.3219 39.413 26.7258C38.9586 27.1296 38.7314 27.6176 38.7314 28.1898C38.7314 28.7619 38.9586 29.2499 39.413 29.6538C39.8673 30.0577 40.5068 30.369 41.3313 30.5878C42.1559 30.8065 43.1235 30.9159 44.2341 30.9159C45.3616 30.9159 46.3292 30.8065 47.1369 30.5878C47.9447 30.369 48.5757 30.0577 49.0301 29.6538C49.4844 29.2499 49.7116 28.7619 49.7116 28.1898C49.7116 27.6176 49.4844 27.1296 49.0301 26.7258C48.5757 26.3219 47.9447 26.0106 47.1369 25.7918C46.3292 25.5731 45.3616 25.4637 44.2341 25.4637ZM57.055 21.1978H58.6704C60.1681 21.1978 61.447 21.1894 62.5072 21.1726C63.5842 21.1389 64.5602 21.08 65.4352 20.9959C66.3271 20.9118 67.2274 20.7855 68.1361 20.6173L68.338 22.3337C67.6481 22.4515 66.9666 22.5525 66.2934 22.6366C65.6203 22.7039 64.9136 22.7544 64.1731 22.7881C63.4327 22.8217 62.6166 22.847 61.7247 22.8638C60.8328 22.8806 59.8147 22.889 58.6704 22.889H57.055V21.1978ZM57.0045 11.2526H66.8235V17.7145H59.1248V22.2075H57.055V16.099H64.7537V12.9438H57.0045V11.2526ZM72.7806 9.88953H74.8756V23.9239H72.7806V9.88953ZM68.338 13.2719H73.2602V14.9631H68.338V13.2719ZM68.338 17.9921H73.2602V19.7086H68.338V17.9921ZM59.6044 25.1355H74.8756V32.7333H72.7806V26.852H59.6044V25.1355Z" fill="black"/>
<path fill-rule="evenodd" clip-rule="evenodd" d="M9.66632 12.113V13.8398L7.60629 14.0076C6.89857 14.0646 6.23039 14.3572 5.70857 14.8387C5.18676 15.3201 4.84144 15.9627 4.72785 16.6635C4.67758 16.9773 4.63137 17.2914 4.58921 17.606C4.57975 17.6821 4.59452 17.7593 4.63141 17.8265C4.6683 17.8937 4.72545 17.9476 4.79473 17.9805L4.88837 18.0243C11.4904 21.1496 19.3961 21.1496 25.997 18.0243L26.0906 17.9805C26.1597 17.9475 26.2165 17.8935 26.2532 17.8263C26.2899 17.759 26.3045 17.682 26.2949 17.606C26.2537 17.2912 26.2078 16.977 26.1575 16.6635C26.0439 15.9627 25.6986 15.3201 25.1768 14.8387C24.6549 14.3572 23.9868 14.0646 23.279 14.0076L21.219 13.841V12.1142C21.2191 11.6045 21.0363 11.1117 20.7038 10.7254C20.3713 10.339 19.9111 10.0849 19.4071 10.0092L17.9235 9.78665C16.2787 9.54082 14.6066 9.54082 12.9619 9.78665L11.4783 10.0092C10.9744 10.0849 10.5144 10.3388 10.1819 10.7249C9.84944 11.111 9.66649 11.6035 9.66632 12.113ZM17.6523 11.5901C16.1873 11.3713 14.698 11.3713 13.2331 11.5901L11.7495 11.8126C11.6775 11.8234 11.6117 11.8596 11.5642 11.9148C11.5167 11.9699 11.4905 12.0402 11.4904 12.113V13.7121C14.1231 13.5618 16.7622 13.5618 19.3949 13.7121V12.113C19.3948 12.0402 19.3686 11.9699 19.3211 11.9148C19.2736 11.8596 19.2079 11.8234 19.1359 11.8126L17.6523 11.5901Z" fill="black"/>
<path d="M26.5308 20.15C26.5283 20.1107 26.5164 20.0726 26.496 20.0389C26.4756 20.0052 26.4473 19.977 26.4136 19.9566C26.3798 19.9363 26.3417 19.9245 26.3023 19.9221C26.263 19.9198 26.2237 19.9271 26.1878 19.9433C19.4131 22.9434 11.4721 22.9434 4.69738 19.9433C4.66148 19.9271 4.62219 19.9198 4.58286 19.9221C4.54354 19.9245 4.50537 19.9363 4.47164 19.9566C4.4379 19.977 4.40961 20.0052 4.3892 20.0389C4.36878 20.0726 4.35686 20.1107 4.35444 20.15C4.23128 22.4782 4.35643 24.8128 4.72778 27.1145C4.84113 27.8156 5.18633 28.4584 5.70817 28.9401C6.23001 29.4218 6.89833 29.7146 7.60622 29.7716L9.88271 29.954C13.5832 30.2532 17.3008 30.2532 21.0025 29.954L23.279 29.7716C23.9869 29.7146 24.6552 29.4218 25.177 28.9401C25.6989 28.4584 26.0441 27.8156 26.1574 27.1145C26.5295 24.81 26.656 22.4752 26.5308 20.1513" fill="black"/>
</svg>
